<?xml version="1.0" encoding="iso-8859-1"?>
<!-- Generator: Adobe Illustrator 19.0.0, SVG Export Plug-In . SVG Version: 6.00 Build 0)  -->
<svg version="1.1" id="Capa_1" xmlns="http://www.w3.org/2000/svg" xmlns:xlink="http://www.w3.org/1999/xlink" x="0px" y="0px"
	 viewBox="0 0 511.999 511.999" style="enable-background:new 0 0 511.999 511.999;" xml:space="preserve">
<path style="fill:#F8C087;" d="M450.999,491.627c0,7.109-5.729,12.872-12.796,12.872h-24.508H98.303H73.795
	c-7.067,0-12.796-5.763-12.796-12.872c0-3.741,1.618-7.297,4.432-9.742l0,0c20.874-18.135,32.872-44.508,32.872-72.254v-97.887
	c0-82.027,61.887-149.51,141.251-157.783l-65.567-78.822c-10.234-12.303-8.114-32.894,4.305-41.827l0,0
	c47.849-34.417,107.564-34.417,155.413,0l0,0c12.42,8.933,14.539,29.525,4.305,41.827l-65.567,78.822
	c79.364,8.273,141.251,75.756,141.251,157.783v97.887c0,27.746,11.998,54.119,32.872,72.254l0,0
	C449.381,484.33,450.999,487.886,450.999,491.627z"/>
<path style="fill:#F8AF78;" d="M243.197,158.34c-68.356,18.011-118.793,80.56-118.793,154.974v98.856
	c0,28.02-12.117,54.654-33.197,72.969c-2.842,2.469-4.476,6.061-4.476,9.839c0,3.766,1.602,7.148,4.146,9.522H73.795
	c-7.067-0.001-12.796-5.764-12.796-12.873c0-3.741,1.618-7.297,4.432-9.742l0,0c20.874-18.135,32.872-44.508,32.872-72.254v-97.887
	c0-82.027,61.887-149.51,141.251-157.783l-65.567-78.822c-10.234-12.303-8.114-32.894,4.305-41.827
	c4.782-3.439,9.686-6.519,14.681-9.271c-0.643,2.951-0.981,5.961-0.981,9.02c0,37.527,49.969,67.949,111.61,67.949
	c4.497,0,8.93-0.167,13.289-0.481l-47.465,57.06L243.197,158.34z"/>
<path style="fill:#DE886C;" d="M304.685,161.143h-97.371c-8.284,0-15-6.716-15-15v-7.16c0-8.284,6.716-15,15-15h97.371
	c8.284,0,15,6.716,15,15v7.16C319.685,154.427,312.969,161.143,304.685,161.143z"/>
<path style="fill:#C66F60;" d="M232.84,161.143h-26.053c-7.994,0-14.474-6.519-14.474-14.561v-8.039
	c0-8.042,6.48-14.561,14.474-14.561h26.053c-7.994,0-14.474,6.519-14.474,14.561v8.039
	C218.367,154.624,224.847,161.143,232.84,161.143z"/>
<path style="fill:#FF4040;" d="M344.736,342.995L344.736,342.995c-18.296,26.479-41.634,49.041-68.661,66.38l-15.106,9.691
	c-3.032,1.945-6.909,1.945-9.941,0l-15.106-9.691c-27.027-17.339-50.365-39.901-68.661-66.38l0,0
	c-14.165-21.374-11.363-49.834,6.693-67.999l0,0c20.033-20.153,52.512-20.153,72.545,0l2.962,2.98c3.61,3.632,9.463,3.632,13.073,0
	l2.962-2.98c20.033-20.153,52.512-20.153,72.545,0l0,0C356.1,293.161,358.901,321.621,344.736,342.995z"/>
<path d="M451.485,476.229c-19.25-16.722-30.291-40.989-30.291-66.58v-97.87c0-66.332-39.051-125.704-98.551-152.037
	c2.848-3.769,4.541-8.457,4.541-13.534v-7.158c0-9.742-6.227-18.055-14.909-21.175l31.501-37.862
	c6.384-7.672,9.273-18.128,7.928-28.688c-1.267-9.949-6.23-18.702-13.619-24.015c-50.631-36.413-113.54-36.413-164.173,0
	c-7.388,5.313-12.352,14.066-13.618,24.015c-1.346,10.56,1.544,21.016,7.928,28.688l31.501,37.862
	c-8.682,3.121-14.909,11.433-14.909,21.175v7.158c0,5.08,1.695,9.771,4.547,13.541c-26.449,11.703-49.297,30.111-66.612,53.831
	c-2.442,3.345-1.71,8.036,1.636,10.478c1.334,0.973,2.882,1.442,4.416,1.442c2.313,0,4.596-1.067,6.063-3.079
	c18.222-24.96,43.155-43.468,72.104-53.522c0.167-0.058,0.325-0.128,0.485-0.196h97.004
	c60.863,20.858,101.738,78.32,101.738,143.075v97.87c0,29.936,12.922,58.33,35.453,77.901c1.177,1.022,1.852,2.509,1.852,4.08
	c0,2.962-2.376,5.372-5.296,5.372h-98.188c12.106-4.738,23.325-10.542,33.376-17.35c3.429-2.323,4.325-6.986,2.002-10.414
	c-2.324-3.429-6.988-4.325-10.416-2.002c-27.925,18.917-67.646,29.766-108.979,29.766s-81.054-10.849-108.979-29.766
	c-3.429-2.323-8.093-1.427-10.416,2.002c-2.323,3.429-1.427,8.091,2.002,10.414c10.051,6.809,21.27,12.612,33.377,17.35H73.795
	c-2.92,0-5.296-2.41-5.296-5.372c0-1.571,0.675-3.058,1.852-4.08c22.531-19.572,35.453-47.966,35.453-77.901v-97.87
	c0-24.014,5.432-46.97,16.144-68.231c1.863-3.699,0.375-8.207-3.324-10.07c-3.698-1.862-8.208-0.375-10.072,3.324
	c-11.776,23.372-17.747,48.599-17.747,74.978v97.87c0,25.591-11.041,49.858-30.291,66.58c-4.457,3.872-7.014,9.486-7.014,15.401
	c-0.001,11.231,9.103,20.369,20.295,20.369h364.408c11.191,0,20.296-9.138,20.296-20.369
	C458.499,485.715,455.942,480.101,451.485,476.229z M207.313,153.706c-4.136,0-7.5-3.364-7.5-7.499v-7.158
	c0-4.135,3.364-7.499,7.5-7.499h97.371c4.136,0,7.5,3.364,7.5,7.499v7.158c0,4.135-3.364,7.499-7.5,7.499H207.313z M175.174,53.218
	c0.743-5.836,3.476-10.843,7.497-13.735c45.231-32.527,101.426-32.527,146.655,0c4.022,2.893,6.755,7.899,7.498,13.735
	c0.81,6.352-0.902,12.783-4.579,17.202l-38.382,46.133h-30.364V60.759c0-4.141-3.357-7.499-7.5-7.499c-4.143,0-7.5,3.357-7.5,7.499
	v55.794h-30.365L179.753,70.42C176.076,66.001,174.364,59.571,175.174,53.218z M356.814,259.461
	c-2.937-2.919-7.686-2.905-10.606,0.031l-6.691,6.73c-10.566-8.924-23.78-13.794-37.745-13.795c-0.001,0,0,0-0.001,0
	c-15.713,0-30.484,6.153-41.591,17.324l-2.964,2.98c-0.42,0.422-0.894,0.511-1.217,0.511c-0.323,0-0.797-0.089-1.218-0.512
	l-2.962-2.979c-11.107-11.172-25.879-17.324-41.593-17.324s-30.484,6.153-41.591,17.324c-20.491,20.61-23.698,53.168-7.626,77.416
	c0.027,0.041,0.054,0.081,0.082,0.121c1.114,1.612,2.248,3.206,3.396,4.788l-7.63,4.264c-3.615,2.02-4.908,6.589-2.888,10.204
	c1.374,2.458,3.925,3.842,6.554,3.842c1.238,0,2.494-0.308,3.652-0.954l9.593-5.36c3.775,4.595,7.701,9.045,11.777,13.342
	l-5.789,5.822c-2.92,2.937-2.906,7.685,0.032,10.605c1.463,1.454,3.375,2.18,5.287,2.18c1.927,0,3.854-0.738,5.319-2.212
	l5.799-5.833c10.979,10.253,22.885,19.524,35.678,27.729l15.105,9.689c2.74,1.758,5.88,2.636,9.021,2.636
	c3.141,0,6.28-0.879,9.021-2.636l15.105-9.689c28.009-17.965,51.823-40.984,70.781-68.417c0.028-0.04,0.055-0.08,0.082-0.121
	c6.318-9.531,9.643-20.347,10.125-31.216h4.888c4.143,0,7.5-3.357,7.5-7.499c0-4.141-3.357-7.499-7.5-7.499h-6.043
	c-1.69-8.425-5.13-16.523-10.264-23.695l7.153-7.194C359.767,267.129,359.753,262.38,356.814,259.461z M344.584,300.954h-7.532
	c-4.143,0-7.5,3.357-7.5,7.499c0,4.141,3.357,7.499,7.5,7.499h9.061c-0.47,7.968-2.967,15.874-7.589,22.87
	c-17.817,25.765-40.191,47.385-66.499,64.26l-15.105,9.689c-0.568,0.364-1.273,0.364-1.842,0l-15.105-9.689
	c-11.892-7.628-22.971-16.235-33.198-25.747l7.745-7.79c2.92-2.937,2.906-7.685-0.032-10.605c-2.937-2.918-7.686-2.905-10.606,0.032
	l-7.756,7.802c-3.108-3.288-6.123-6.668-9.044-10.141l6.918-3.866c3.615-2.02,4.908-6.589,2.888-10.204
	c-2.021-3.616-6.59-4.908-10.206-2.887l-8.993,5.025c-1.428-1.938-2.839-3.891-4.213-5.878c-12.114-18.338-9.68-42.927,5.801-58.497
	c8.27-8.319,19.263-12.9,30.952-12.9c11.69,0,22.684,4.581,30.955,12.901l2.962,2.978c3.164,3.183,7.374,4.936,11.855,4.936
	c4.481,0,8.691-1.753,11.854-4.935l2.964-2.98c8.271-8.319,19.264-12.9,30.954-12.9c9.968,0,19.424,3.342,27.122,9.482l-6.81,6.849
	c-2.92,2.937-2.906,7.685,0.032,10.605c1.463,1.454,3.375,2.181,5.287,2.181c1.927,0,3.854-0.738,5.319-2.212l6.205-6.241
	C341.48,292.101,343.372,296.446,344.584,300.954z"/>
<g>
</g>
<g>
</g>
<g>
</g>
<g>
</g>
<g>
</g>
<g>
</g>
<g>
</g>
<g>
</g>
<g>
</g>
<g>
</g>
<g>
</g>
<g>
</g>
<g>
</g>
<g>
</g>
<g>
</g>
</svg>
